<?xml version="1.0" encoding="UTF-8"?>
<!DOCTYPE svg PUBLIC "-//W3C//DTD SVG 1.1//EN" "http://www.w3.org/Graphics/SVG/1.1/DTD/svg11.dtd">
<svg xmlns="http://www.w3.org/2000/svg" xmlns:xlink="http://www.w3.org/1999/xlink" version="1.1" width="628px" height="79px" viewBox="-0.5 -0.5 628 79" animation="{&quot;scriptArr&quot;:[],&quot;cellIdArr&quot;:[]}"><defs><style type="text/css">ul { margin-top: 0px; margin-bottom: 10px; }&#xa;ol { margin-top: 0px; margin-bottom: 10px; }&#xa;.h1, .h2, .h3, .h4, .h5, .h6, h1, h2, h3, h4, h5, h6 { margin-bottom: .5rem; font-weight: 500; line-height: 1.2; }&#xa;h1, h2, h3, h4, h5, h6 { margin-top: 0; margin-bottom: .5rem; }&#xa;.h1, h1 { font-size: 2.5rem; }&#xa;h2 { font-size: 1.5em; font-weight: bold; }&#xa;h3 { font-size: 1.17em; font-weight: bold; }&#xa;.h4, h4 { font-size: 1.5rem; }&#xa;.h5, h5 { font-size: 1.25rem; }&#xa;.h6, h6 { font-size: 1rem; }&#xa;p { margin-top: 0; margin-bottom: 1rem; }&#xa;a { color: #007bff; }&#xa;ul { margin-top: 0px; margin-bottom: 10px; }&#xa;ol { margin-top: 0px; margin-bottom: 10px; }&#xa;.h1, .h2, .h3, .h4, .h5, .h6, h1, h2, h3, h4, h5, h6 { margin-bottom: .5rem; font-weight: 500; line-height: 1.2; }&#xa;h1, h2, h3, h4, h5, h6 { margin-top: 0; margin-bottom: .5rem; }&#xa;.h1, h1 { font-size: 2.5rem; }&#xa;h2 { font-size: 1.5em; font-weight: bold; }&#xa;h3 { font-size: 1.17em; font-weight: bold; }&#xa;.h4, h4 { font-size: 1.5rem; }&#xa;.h5, h5 { font-size: 1.25rem; }&#xa;.h6, h6 { font-size: 1rem; }&#xa;p { margin-top: 0; margin-bottom: 1rem; }&#xa;a { color: #007bff; }&#xa;ul { margin-top: 0px; margin-bottom: 10px; }&#xa;ol { margin-top: 0px; margin-bottom: 10px; }&#xa;.h1, .h2, .h3, .h4, .h5, .h6, h1, h2, h3, h4, h5, h6 { margin-bottom: .5rem; font-weight: 500; line-height: 1.2; }&#xa;h1, h2, h3, h4, h5, h6 { margin-top: 0; margin-bottom: .5rem; }&#xa;.h1, h1 { font-size: 2.5rem; }&#xa;h2 { font-size: 1.5em; font-weight: bold; }&#xa;h3 { font-size: 1.17em; font-weight: bold; }&#xa;.h4, h4 { font-size: 1.5rem; }&#xa;.h5, h5 { font-size: 1.25rem; }&#xa;.h6, h6 { font-size: 1rem; }&#xa;p { margin-top: 0; margin-bottom: 1rem; }&#xa;a { color: #007bff; }&#xa;</style><linearGradient cell-id="tFwnlgXd1_CVZLke5hPc-1" x1="0%" y1="100%" x2="0%" y2="0%" id="mx-gradient-f78e04-1-d05c17-1-s-0"><stop cell-id="tFwnlgXd1_CVZLke5hPc-1" offset="0%" style="stop-color:#D05C17"/><stop cell-id="tFwnlgXd1_CVZLke5hPc-1" offset="100%" style="stop-color:#F78E04"/></linearGradient><linearGradient cell-id="tFwnlgXd1_CVZLke5hPc-2" x1="0%" y1="100%" x2="0%" y2="0%" id="mx-gradient-945df2-1-5a30b5-1-s-0"><stop cell-id="tFwnlgXd1_CVZLke5hPc-2" offset="0%" style="stop-color:#5A30B5"/><stop cell-id="tFwnlgXd1_CVZLke5hPc-2" offset="100%" style="stop-color:#945DF2"/></linearGradient><linearGradient cell-id="tFwnlgXd1_CVZLke5hPc-3" x1="0%" y1="100%" x2="0%" y2="0%" id="mx-gradient-4d72f3-1-3334b9-1-s-0"><stop cell-id="tFwnlgXd1_CVZLke5hPc-3" offset="0%" style="stop-color:#3334B9"/><stop cell-id="tFwnlgXd1_CVZLke5hPc-3" offset="100%" style="stop-color:#4D72F3"/></linearGradient><style type="text/css">@import url(https://fonts.googleapis.com/css2?family=Open+Sans:ital,wght@0,400;0,700;1,400;1,700&amp;display=swap);&#xa;@import url(https://fonts.googleapis.com/css2?family=Open+Sans:ital,wght@0,400;0,700;1,400;1,700&amp;display=swap);&#xa;</style></defs><g><g shape-node=""><path cell-id="tFwnlgXd1_CVZLke5hPc-1" d="M 360 0 L 438 0 L 438 78 L 360 78 Z" fill="url(#mx-gradient-f78e04-1-d05c17-1-s-0)" stroke="none" pointer-events="all"/><path cell-id="tFwnlgXd1_CVZLke5hPc-1" d="M 380.31 7.8 C 379.64 7.8 379.09 8.35 379.09 9.02 L 379.09 22.78 C 379.09 23.45 379.64 24 380.31 24 L 389.52 24 L 411.3 69.51 C 411.5 69.93 411.93 70.2 412.4 70.2 L 427.76 70.2 C 428.44 70.2 428.98 69.65 428.98 68.98 L 428.98 55.22 C 428.98 54.55 428.44 54 427.76 54 L 422.31 54 L 400.61 8.5 C 400.41 8.07 399.98 7.8 399.51 7.8 Z M 381.53 10.24 L 398.74 10.24 L 420.44 55.74 C 420.64 56.17 421.07 56.44 421.54 56.44 L 426.55 56.44 L 426.55 67.76 L 413.17 67.76 L 391.39 22.26 C 391.18 21.83 390.76 21.56 390.29 21.56 L 381.53 21.56 Z M 387.3 32.11 C 386.82 32.1 386.38 32.37 386.17 32.81 L 369.2 68.44 C 369.02 68.82 369.04 69.26 369.27 69.62 C 369.49 69.97 369.88 70.19 370.3 70.19 L 386.48 70.19 C 386.95 70.19 387.37 69.92 387.58 69.49 L 396.55 50.74 C 396.71 50.41 396.71 50.02 396.55 49.69 L 388.37 32.8 C 388.17 32.39 387.76 32.12 387.3 32.11 Z M 387.28 36.15 L 394.09 50.22 L 385.71 67.75 L 372.23 67.75 Z" fill="#ffffff" stroke="none" pointer-events="all"/></g><g shape-node=""><path cell-id="tFwnlgXd1_CVZLke5hPc-2" d="M 180 0 L 258 0 L 258 78 L 180 78 Z" fill="url(#mx-gradient-945df2-1-5a30b5-1-s-0)" stroke="none" pointer-events="all"/><path cell-id="tFwnlgXd1_CVZLke5hPc-2" d="M 232.72 8.96 C 232.07 8.99 231.55 9.53 231.55 10.18 L 231.55 23.97 L 227.74 23.97 L 227.74 26.4 L 231.55 26.4 L 231.55 51.5 L 227.71 51.5 L 227.71 53.93 L 231.55 53.93 L 231.55 67.76 C 231.55 68.16 231.74 68.52 232.06 68.75 C 232.37 68.98 232.78 69.04 233.15 68.92 L 249.37 63.49 C 249.87 63.32 250.2 62.86 250.2 62.33 L 250.2 18.21 C 250.2 17.75 249.94 17.33 249.52 17.12 L 233.31 9.09 C 233.12 9 232.92 8.96 232.72 8.96 Z M 205.23 9.03 C 205.05 9.03 204.88 9.07 204.73 9.15 L 188.48 17.18 C 188.06 17.39 187.8 17.81 187.8 18.27 L 187.8 62.35 C 187.8 62.87 188.14 63.34 188.63 63.51 L 204.88 68.92 C 205.25 69.05 205.66 68.98 205.98 68.75 C 206.3 68.52 206.48 68.16 206.48 67.76 L 206.48 53.93 L 208.99 53.93 L 208.99 51.5 L 206.48 51.5 L 206.48 26.4 L 208.96 26.4 L 208.96 23.97 L 206.48 23.97 L 206.48 10.24 C 206.48 9.91 206.35 9.6 206.11 9.37 C 205.88 9.14 205.56 9.02 205.23 9.03 Z M 233.98 12.14 L 247.77 18.97 L 247.77 61.46 L 233.98 66.08 Z M 204.05 12.2 L 204.05 66.08 L 190.24 61.47 L 190.24 19.03 Z M 212.71 23.97 L 212.71 26.4 L 216.51 26.4 L 216.51 23.97 Z M 220.24 23.97 L 220.24 26.4 L 223.98 26.4 L 223.98 23.97 Z M 220.37 31.2 L 215.37 45.95 L 217.68 46.73 L 222.67 31.98 Z M 213.56 33.28 L 208.79 37.36 C 208.52 37.59 208.36 37.93 208.36 38.28 C 208.36 38.64 208.52 38.98 208.79 39.21 L 213.56 43.27 L 215.14 41.42 L 211.45 38.28 L 215.14 35.13 Z M 224.47 33.34 L 222.9 35.2 L 226.51 38.24 L 222.89 41.36 L 224.47 43.21 L 229.19 39.16 C 229.46 38.93 229.61 38.59 229.61 38.23 C 229.61 37.87 229.45 37.53 229.18 37.3 Z M 212.67 51.5 L 212.67 53.93 L 216.5 53.93 L 216.5 51.5 Z M 220.24 51.5 L 220.24 53.93 L 223.91 53.93 L 223.91 51.5 Z" fill="#ffffff" stroke="none" pointer-events="all"/></g><g shape-node=""><path cell-id="tFwnlgXd1_CVZLke5hPc-3" d="M 549 0 L 627 0 L 627 78 L 549 78 Z" fill="url(#mx-gradient-4d72f3-1-3334b9-1-s-0)" stroke="none" pointer-events="all"/><path cell-id="tFwnlgXd1_CVZLke5hPc-3" d="M 582.48 7.8 C 579.13 7.81 575.69 8.15 572.34 8.86 C 572.31 8.87 572.29 8.87 572.26 8.88 C 569.85 9.55 567.31 10.24 565.24 11.42 C 563.17 12.6 561.49 14.51 561.49 17.14 L 561.49 26.38 C 561.49 27.97 562.29 29.3 563.43 30.34 L 561.66 33.29 C 561.55 33.48 561.49 33.7 561.49 33.92 L 561.49 33.92 L 561.49 43.87 C 561.49 43.9 561.49 43.92 561.49 43.95 C 561.59 45.46 562.35 46.74 563.43 47.77 C 563.16 48.02 562.9 48.27 562.66 48.53 C 562.05 49.22 561.49 50.03 561.49 51.08 L 561.49 61.15 C 561.49 63.1 562.63 64.72 564.18 65.87 C 565.73 67.02 567.74 67.84 569.94 68.47 C 574.35 69.73 579.53 70.2 583.2 70.2 C 585.36 70.2 589.84 69.87 594.13 68.78 C 596.27 68.24 598.36 67.51 600.09 66.48 C 601.82 65.45 603.25 64.07 603.75 62.2 C 603.78 62.1 603.79 62 603.79 61.89 L 603.79 51.18 C 603.79 51.12 603.79 51.06 603.78 51 C 603.55 49.51 602.74 48.51 601.91 47.75 C 602.01 47.66 602.11 47.56 602.2 47.47 C 603.22 46.46 603.9 45.28 603.9 43.99 L 601.47 43.99 C 601.47 44.39 601.21 45.03 600.49 45.75 C 599.77 46.47 598.62 47.23 597.13 47.87 L 598.09 50.1 C 598.73 49.82 599.33 49.52 599.88 49.21 C 600.65 49.87 601.19 50.4 601.35 51.28 C 601.29 52.17 600.8 52.96 599.79 53.77 C 598.74 54.62 597.17 55.39 595.35 55.99 C 591.71 57.2 587.12 57.78 583.79 57.78 C 580.35 57.78 575.27 57.47 571.12 56.38 C 569.05 55.83 567.21 55.08 565.95 54.16 C 564.71 53.26 564.05 52.3 563.93 51.06 C 563.94 50.95 564.06 50.61 564.47 50.16 C 564.73 49.87 565.07 49.55 565.46 49.23 C 566.83 50.01 568.42 50.6 570.13 51.08 C 574.48 52.3 579.54 52.73 583.08 52.73 L 583.08 50.3 C 579.74 50.3 574.8 49.87 570.78 48.74 C 568.77 48.18 567 47.43 565.79 46.57 C 564.58 45.71 563.99 44.83 563.92 43.8 L 563.92 38.22 C 564.2 38.46 564.51 38.68 564.82 38.88 C 566.57 40.02 568.78 40.76 571.2 41.3 C 576.02 42.38 581.69 42.59 585.93 42.59 L 585.93 40.16 C 581.77 40.16 576.22 39.94 571.73 38.93 C 569.48 38.43 567.51 37.72 566.14 36.84 C 564.9 36.04 564.26 35.15 564.03 34.07 L 565.42 31.74 C 566.81 32.52 568.42 33.1 570.07 33.57 C 574.23 34.75 578.54 35.14 580.13 35.14 L 580.13 32.71 C 579 32.71 574.59 32.32 570.73 31.23 C 568.8 30.68 566.98 29.95 565.74 29.09 C 564.5 28.23 563.92 27.38 563.92 26.38 L 563.92 20.74 C 565.51 22.02 567.67 22.92 570.06 23.59 C 574.08 24.7 578.95 25.15 583.6 25.15 L 583.6 22.72 C 579.1 22.72 574.4 22.27 570.71 21.25 C 567.16 20.26 564.75 18.72 563.98 16.95 C 564.06 15.4 564.85 14.43 566.44 13.53 C 568.09 12.59 570.48 11.9 572.87 11.23 C 581.34 9.45 590.49 10.18 596.88 12.66 L 597.76 10.4 C 594.28 9.04 590.16 8.19 585.8 7.9 L 585.8 7.9 C 584.7 7.83 583.6 7.8 582.48 7.8 Z M 592.08 14.11 C 591.62 14.11 591.2 14.36 591 14.77 L 583.45 29.71 C 583.26 30.09 583.27 30.53 583.5 30.89 C 583.72 31.25 584.11 31.47 584.53 31.47 L 591.58 31.47 L 584.68 54.79 C 584.52 55.33 584.75 55.91 585.24 56.19 C 585.72 56.48 586.34 56.39 586.73 55.98 L 614.08 27.35 C 614.42 27 614.51 26.48 614.32 26.03 C 614.13 25.59 613.69 25.3 613.2 25.3 L 606.12 25.3 L 609.41 15.72 C 609.54 15.35 609.48 14.94 609.25 14.62 C 609.02 14.3 608.65 14.11 608.26 14.11 Z M 592.83 16.54 L 606.56 16.54 L 603.27 26.12 C 603.14 26.49 603.2 26.9 603.43 27.22 C 603.66 27.54 604.02 27.73 604.42 27.73 L 610.36 27.73 L 588.44 50.67 L 594.37 30.6 C 594.48 30.24 594.41 29.84 594.18 29.53 C 593.95 29.22 593.59 29.04 593.21 29.04 L 586.51 29.04 Z M 567.69 24.94 C 566.8 24.94 566.07 25.66 566.07 26.55 C 566.07 27.45 566.8 28.17 567.69 28.17 C 568.58 28.17 569.31 27.45 569.31 26.55 C 569.31 25.66 568.58 24.94 567.69 24.94 Z M 567.69 42.46 C 566.8 42.46 566.07 43.18 566.07 44.08 C 566.07 44.5 566.25 44.92 566.55 45.22 C 566.85 45.52 567.26 45.69 567.69 45.69 C 568.12 45.69 568.53 45.52 568.83 45.22 C 569.14 44.92 569.31 44.5 569.31 44.08 C 569.31 43.18 568.58 42.46 567.69 42.46 Z M 601.36 55.63 L 601.36 61.65 C 601.07 62.64 600.23 63.57 598.85 64.39 C 597.43 65.23 595.53 65.92 593.53 66.43 C 589.53 67.44 585.1 67.77 583.2 67.77 C 579.74 67.77 574.67 67.3 570.61 66.14 C 568.58 65.56 566.8 64.79 565.63 63.92 C 564.45 63.05 563.92 62.19 563.92 61.15 L 563.92 55.65 C 564.11 55.82 564.31 55.98 564.52 56.13 C 566.17 57.32 568.25 58.14 570.51 58.73 C 575.01 59.91 580.21 60.21 583.79 60.21 C 587.39 60.21 592.12 59.62 596.11 58.3 C 598.11 57.64 599.92 56.79 601.32 55.66 C 601.33 55.65 601.35 55.64 601.36 55.63 Z M 567.69 59.88 C 566.8 59.88 566.07 60.6 566.07 61.5 C 566.07 62.39 566.8 63.11 567.69 63.11 C 568.58 63.11 569.31 62.39 569.31 61.5 C 569.31 60.6 568.58 59.88 567.69 59.88 Z" fill="#ffffff" stroke="none" pointer-events="all"/></g><g shape-node=""><path cell-id="tFwnlgXd1_CVZLke5hPc-4" d="M 32.47 49.7 C 34.43 50.67 36.6 51.27 38.93 51.27 C 41.22 51.27 43.35 50.7 45.29 49.77 C 47.42 49.85 50.01 50.83 52.47 52.43 C 55.08 54.13 57.5 56.38 59.05 58.35 C 62.46 62.98 63.95 67.17 63.9 74.98 L 14.05 74.98 C 14.22 65.61 15.77 62.04 20.17 56.67 C 22.18 54.45 27.31 50.53 32.47 49.7 Z M 38.93 24.83 C 45.42 24.83 50.64 30.06 50.64 36.54 C 50.64 43.03 45.42 48.25 38.93 48.25 C 32.45 48.25 27.22 43.03 27.22 36.54 C 27.22 30.06 32.45 24.83 38.93 24.83 Z M 38.93 21.82 C 30.82 21.82 24.21 28.43 24.21 36.54 C 24.21 40.91 26.16 44.8 29.2 47.5 C 24.18 49.09 20 52.36 17.92 54.67 C 17.9 54.68 17.89 54.7 17.87 54.72 C 12.98 60.68 10.97 65.44 10.97 76.49 C 10.97 77.33 11.64 78 12.47 78 L 65.44 78 C 66.25 78 66.92 77.35 66.94 76.54 C 67.24 67.24 65.38 61.87 61.46 56.53 C 61.45 56.52 61.44 56.5 61.43 56.49 C 59.63 54.22 57.03 51.8 54.11 49.9 C 52.42 48.8 50.61 47.98 48.78 47.41 C 51.75 44.71 53.66 40.86 53.66 36.54 C 53.66 28.43 47.05 21.82 38.93 21.82 Z M 21.69 37.69 L 3.2 37.69 C 3.36 31.48 4.41 29.09 7.42 25.42 C 8.77 23.93 12.34 21.21 15.82 20.63 C 17.22 21.3 18.75 21.73 20.4 21.73 C 22.02 21.73 23.54 21.31 24.92 20.67 C 26.31 20.74 28.07 21.39 29.76 22.48 C 29.88 22.56 30 22.64 30.12 22.73 L 31.82 20.26 C 31.68 20.16 31.53 20.07 31.39 19.98 C 30.38 19.32 29.31 18.76 28.21 18.34 C 30.08 16.38 31.26 13.77 31.26 10.86 C 31.26 4.88 26.38 0 20.4 0 L 20.4 0 C 14.42 0 9.53 4.88 9.53 10.86 C 9.53 13.8 10.73 16.46 12.64 18.42 C 9.31 19.65 6.61 21.84 5.18 23.43 C 5.17 23.44 5.15 23.46 5.14 23.48 C 1.64 27.74 0.15 31.3 0.15 39.18 C 0.15 40.01 0.82 40.68 1.64 40.68 L 21.73 40.68 Z M 20.4 2.99 C 24.76 2.99 28.27 6.5 28.27 10.86 C 28.27 15.23 24.76 18.74 20.4 18.74 C 16.03 18.74 12.52 15.23 12.52 10.86 C 12.52 6.5 16.03 2.99 20.4 2.99 Z M 56.31 37.69 L 74.8 37.69 C 74.64 31.48 73.59 29.09 70.58 25.42 C 69.23 23.93 65.66 21.21 62.18 20.63 C 60.78 21.3 59.25 21.73 57.6 21.73 C 55.98 21.73 54.47 21.31 53.08 20.67 C 51.69 20.74 49.93 21.39 48.24 22.48 C 48.12 22.56 48 22.64 47.88 22.73 L 46.18 20.26 C 46.33 20.16 46.47 20.07 46.61 19.98 C 47.62 19.32 48.69 18.76 49.79 18.34 C 47.92 16.38 46.74 13.77 46.74 10.86 C 46.74 4.88 51.62 0 57.6 0 L 57.6 0 C 63.59 0 68.47 4.88 68.47 10.86 C 68.47 13.8 67.27 16.46 65.36 18.42 C 68.69 19.65 71.39 21.84 72.82 23.43 C 72.83 23.44 72.85 23.46 72.86 23.48 C 76.36 27.74 77.85 31.3 77.85 39.18 C 77.85 40.01 77.18 40.68 76.36 40.68 L 56.27 40.68 Z M 57.6 2.99 C 53.24 2.99 49.73 6.5 49.73 10.86 C 49.73 15.23 53.24 18.74 57.6 18.74 C 61.97 18.74 65.48 15.23 65.48 10.86 C 65.48 6.5 61.97 2.99 57.6 2.99 Z" fill="#232f3e" stroke="none" pointer-events="all"/></g><g shape-node=""><path cell-id="tFwnlgXd1_CVZLke5hPc-6" d="M 95 39 L 157.88 39" fill="none" stroke="#545b64" stroke-miterlimit="10" pointer-events="stroke"/><path cell-id="tFwnlgXd1_CVZLke5hPc-6" d="M 164.88 39 L 157.88 42.5 L 157.88 35.5 Z" fill="#545b64" stroke="#545b64" stroke-miterlimit="10" pointer-events="all"/></g><g shape-node=""><path cell-id="tFwnlgXd1_CVZLke5hPc-7" d="M 277.5 38.5 L 340.38 38.5" fill="none" stroke="#545b64" stroke-miterlimit="10" pointer-events="stroke"/><path cell-id="tFwnlgXd1_CVZLke5hPc-7" d="M 347.38 38.5 L 340.38 42 L 340.38 35 Z" fill="#545b64" stroke="#545b64" stroke-miterlimit="10" pointer-events="all"/></g><g shape-node=""><path cell-id="tFwnlgXd1_CVZLke5hPc-9" d="M 465 38.5 L 527.88 38.5" fill="none" stroke="#545b64" stroke-miterlimit="10" pointer-events="stroke"/><path cell-id="tFwnlgXd1_CVZLke5hPc-9" d="M 534.88 38.5 L 527.88 42 L 527.88 35 Z" fill="#545b64" stroke="#545b64" stroke-miterlimit="10" pointer-events="all"/></g><g shape-node=""><path cell-id="tFwnlgXd1_CVZLke5hPc-6" d="M 95 39 L 157.88 39" fill="none" stroke="#545b64" stroke-miterlimit="10" pointer-events="stroke"/><path cell-id="tFwnlgXd1_CVZLke5hPc-6" d="M 164.88 39 L 157.88 42.5 L 157.88 35.5 Z" fill="#545b64" stroke="#545b64" stroke-miterlimit="10" pointer-events="all"/></g><g shape-node=""><path cell-id="tFwnlgXd1_CVZLke5hPc-7" d="M 277.5 38.5 L 340.38 38.5" fill="none" stroke="#545b64" stroke-miterlimit="10" pointer-events="stroke"/><path cell-id="tFwnlgXd1_CVZLke5hPc-7" d="M 347.38 38.5 L 340.38 42 L 340.38 35 Z" fill="#545b64" stroke="#545b64" stroke-miterlimit="10" pointer-events="all"/></g><g shape-node=""><path cell-id="tFwnlgXd1_CVZLke5hPc-9" d="M 465 38.5 L 527.88 38.5" fill="none" stroke="#545b64" stroke-miterlimit="10" pointer-events="stroke"/><path cell-id="tFwnlgXd1_CVZLke5hPc-9" d="M 534.88 38.5 L 527.88 42 L 527.88 35 Z" fill="#545b64" stroke="#545b64" stroke-miterlimit="10" pointer-events="all"/></g></g><g fill="#787878" font-family="Arial,Helvetica" pointer-events="none" font-size="12px"><text pointer-events="none" x="6" y="15">Visual Paradigm Online Free Edition</text></g><g fill="#787878" font-family="Arial,Helvetica" pointer-events="none" text-anchor="end" font-size="12px"><text pointer-events="none" x="622" y="73">Visual Paradigm Online Free Edition</text></g></svg>